{
  "accessors": [
    {
      "bufferView": 2,
      "componentType": 5126,
      "count": 3205,
      "max": [
        1.0076379776000977,
        -0.35838699340820312,
        3.8515529632568359
      ],
      "min": [
        -1.0076420307159424,
        -0.79287397861480713,
        1.8216309547424316
      ],
      "type": "VEC3"
    },
    {
      "bufferView": 2,
      "byteOffset": 38460,
      "componentType": 5126,
      "count": 3205,
      "max": [
        0.9978603720664978,
        0.99747586250305176,
        0.99698227643966675
      ],
      "min": [
        -0.99334108829498291,
        -0.99015581607818604,
        -0.99808508157730103
      ],
      "type": "VEC3"
    },
    {
      "bufferView": 3,
      "componentType": 5126,
      "count": 3205,
      "max": [
        0.99830859899520874,
        0.99991464614868164,
        0.98364609479904175,
        1
      ],
      "min": [
        -0.99778610467910767,
        -0.9938361644744873,
        -0.9994434118270874,
        1
      ],
      "type": "VEC4"
    },
    {
      "bufferView": 1,
      "componentType": 5126,
      "count": 3205,
      "max": [
        0.99419999122619629,
        0.99290001392364502
      ],
      "min": [
        0.023199999704957008,
        0.0093000000342726707
      ],
      "type": "VEC2"
    },
    {
      "bufferView": 0,
      "componentType": 5125,
      "count": 3285,
      "max": [
        3204
      ],
      "min": [
        0
      ],
      "type": "SCALAR"
    },
    {
      "bufferView": 2,
      "byteOffset": 76920,
      "componentType": 5126,
      "count": 5463,
      "max": [
        2.6224739551544189,
        2.0753509998321533,
        4.598567008972168
      ],
      "min": [
        -2.6227030754089355,
        -1.2298099994659424,
        0.3091999888420105
      ],
      "type": "VEC3"
    },
    {
      "bufferView": 2,
      "byteOffset": 142476,
      "componentType": 5126,
      "count": 5463,
      "max": [
        0.9999920129776001,
        0.9997214674949646,
        0.99892288446426392
      ],
      "min": [
        -0.99999260902404785,
        -0.99999797344207764,
        -0.99895989894866943
      ],
      "type": "VEC3"
    },
    {
      "bufferView": 3,
      "byteOffset": 51280,
      "componentType": 5126,
      "count": 5463,
      "max": [
        1,
        0.99990785121917725,
        0.99989485740661621,
        1
      ],
      "min": [
        -1,
        -0.99913132190704346,
        -0.99963217973709106,
        -1
      ],
      "type": "VEC4"
    },
    {
      "bufferView": 1,
      "byteOffset": 25640,
      "componentType": 5126,
      "count": 5463,
      "max": [
        0.99800002574920654,
        0.70520001649856567
      ],
      "min": [
        0.0019000000320374966,
        0.0019000000320374966
      ],
      "type": "VEC2"
    },
    {
      "bufferView": 0,
      "byteOffset": 13140,
      "componentType": 5125,
      "count": 29112,
      "max": [
        5462
      ],
      "min": [
        0
      ],
      "type": "SCALAR"
    },
    {
      "bufferView": 2,
      "byteOffset": 208032,
      "componentType": 5126,
      "count": 8,
      "max": [
        0.54436898231506348,
        -0.65318101644515991,
        3.8681800365447998
      ],
      "min": [
        -0.54434901475906372,
        -0.70654100179672241,
        3.6600730419158936
      ],
      "type": "VEC3"
    },
    {
      "bufferView": 0,
      "byteOffset": 129588,
      "componentType": 5125,
      "count": 8,
      "max": [
        7
      ],
      "min": [
        0
      ],
      "type": "SCALAR"
    },
    {
      "bufferView": 2,
      "byteOffset": 208128,
      "componentType": 5126,
      "count": 2913,
      "max": [
        2.9331591129302979,
        0.63458400964736938,
        3.7488150596618652
      ],
      "min": [
        -2.9331591129302979,
        -0.69562399387359619,
        0.011345000006258488
      ],
      "type": "VEC3"
    },
    {
      "bufferView": 2,
      "byteOffset": 243084,
      "componentType": 5126,
      "count": 2913,
      "max": [
        0.99986004829406738,
        0.99906444549560547,
        0.99777466058731079
      ],
      "min": [
        -0.99985897541046143,
        -0.99966210126876831,
        -0.99998617172241211
      ],
      "type": "VEC3"
    },
    {
      "bufferView": 3,
      "byteOffset": 138688,
      "componentType": 5126,
      "count": 2913,
      "max": [
        0.99997472763061523,
        0.99964785575866699,
        0.99943917989730835,
        1
      ],
      "min": [
        -0.99998742341995239,
        -0.99996787309646606,
        -0.99969244003295898,
        -1
      ],
      "type": "VEC4"
    },
    {
      "bufferView": 1,
      "byteOffset": 69344,
      "componentType": 5126,
      "count": 2913,
      "max": [
        0.96340000629425049,
        0.99299997091293335
      ],
      "min": [
        0.020199999213218689,
        0.017200000584125519
      ],
      "type": "VEC2"
    },
    {
      "bufferView": 0,
      "byteOffset": 129620,
      "componentType": 5125,
      "count": 15678,
      "max": [
        2912
      ],
      "min": [
        0
      ],
      "type": "SCALAR"
    }
  ],
  "asset": {
    "generator": "Sketchfab (OSG glTF plugin)",
    "version": "2.0"
  },
  "bufferViews": [
    {
      "buffer": 0,
      "byteLength": 192332,
      "byteOffset": 0,
      "name": "floatBufferViews",
      "target": 34963
    },
    {
      "buffer": 0,
      "byteLength": 92648,
      "byteOffset": 192332,
      "byteStride": 8,
      "name": "floatBufferViews",
      "target": 34962
    },
    {
      "buffer": 0,
      "byteLength": 278040,
      "byteOffset": 284980,
      "byteStride": 12,
      "name": "floatBufferViews",
      "target": 34962
    },
    {
      "buffer": 0,
      "byteLength": 185296,
      "byteOffset": 563020,
      "byteStride": 16,
      "name": "floatBufferViews",
      "target": 34962
    }
  ],
  "buffers": [
    {
      "byteLength": 748316,
      "uri": "scene.bin"
    }
  ],
  "images": [
    {
      "uri": "textures/Body_normal.png"
    },
    {
      "uri": "textures/Body_baseColor.png"
    },
    {
      "uri": "textures/Body_Eyes.bmp.001_normal.png"
    },
    {
      "uri": "textures/Body_Eyes.bmp.001_baseColor.png"
    }
  ],
  "materials": [
    {
      "doubleSided": true,
      "emissiveFactor": [
        0,
        0,
        0
      ],
      "name": "Body",
      "normalTexture": {
        "index": 0,
        "scale": 1,
        "texCoord": 0
      },
      "pbrMetallicRoughness": {
        "baseColorFactor": [
          1,
          1,
          1,
          1
        ],
        "baseColorTexture": {
          "index": 1,
          "texCoord": 0
        },
        "metallicFactor": 0,
        "roughnessFactor": 0.59999999999999998
      }
    },
    {
      "doubleSided": true,
      "emissiveFactor": [
        0,
        0,
        0
      ],
      "name": "Body_Eyes.bmp.001",
      "normalTexture": {
        "index": 2,
        "scale": 1,
        "texCoord": 0
      },
      "pbrMetallicRoughness": {
        "baseColorFactor": [
          1,
          1,
          1,
          1
        ],
        "baseColorTexture": {
          "index": 3,
          "texCoord": 0
        },
        "metallicFactor": 0,
        "roughnessFactor": 1
      }
    }
  ],
  "meshes": [
    {
      "primitives": [
        {
          "attributes": {
            "NORMAL": 1,
            "POSITION": 0,
            "TANGENT": 2,
            "TEXCOORD_0": 3
          },
          "indices": 4,
          "material": 0,
          "mode": 4
        }
      ]
    },
    {
      "primitives": [
        {
          "attributes": {
            "NORMAL": 6,
            "POSITION": 5,
            "TANGENT": 7,
            "TEXCOORD_0": 8
          },
          "indices": 9,
          "material": 0,
          "mode": 4
        }
      ]
    },
    {
      "primitives": [
        {
          "attributes": {
            "POSITION": 10
          },
          "indices": 11,
          "material": 1,
          "mode": 1
        }
      ]
    },
    {
      "primitives": [
        {
          "attributes": {
            "NORMAL": 13,
            "POSITION": 12,
            "TANGENT": 14,
            "TEXCOORD_0": 15
          },
          "indices": 16,
          "material": 1,
          "mode": 4
        }
      ]
    }
  ],
  "nodes": [
    {
      "children": [
        1
      ],
      "name": "RootNode (gltf orientation matrix)",
      "rotation": [
        -0.70710678118654746,
        -0,
        -0,
        0.70710678118654757
      ]
    },
    {
      "children": [
        2
      ],
      "name": "RootNode (model correction matrix)"
    },
    {
      "children": [
        3
      ],
      "name": "AncientUgandan.obj.cleaner.materialmerger.gles"
    },
    {
      "children": [
        4,
        5,
        6,
        7
      ],
      "name": "Geode"
    },
    {
      "mesh": 0,
      "name": ""
    },
    {
      "mesh": 1,
      "name": ""
    },
    {
      "mesh": 2,
      "name": ""
    },
    {
      "mesh": 3,
      "name": ""
    }
  ],
  "samplers": [
    {
      "magFilter": 9729,
      "minFilter": 9987,
      "wrapS": 10497,
      "wrapT": 10497
    }
  ],
  "scene": 0,
  "scenes": [
    {
      "name": "OSG_Scene",
      "nodes": [
        0
      ]
    }
  ],
  "textures": [
    {
      "sampler": 0,
      "source": 0
    },
    {
      "sampler": 0,
      "source": 1
    },
    {
      "sampler": 0,
      "source": 2
    },
    {
      "sampler": 0,
      "source": 3
    }
  ]
}

